<svg xmlns="http://www.w3.org/2000/svg" xmlns:xlink="http://www.w3.org/1999/xlink" width="142" height="125" viewBox="0 0 142 125">
    <defs>
        <path id="a" d="M.22.35h21.59v24.544H.22z"/>
        <path id="c" d="M.272.195h12.557v23.567H.272z"/>
    </defs>
    <g fill="none" fill-rule="evenodd">
        <g transform="translate(120 81)">
            <mask id="b" fill="#fff">
                <use xlink:href="#a"/>
            </mask>
        </g>
        <path fill="#E50539" d="M87.73 39.881c-.51.752-1.7 2.15-3.449 1.865-.853-.144-35.6-7.164-35.686-7.17-.245-.066-.212-.587.231-.534L87.5 39.354c.244.04.377.316.231.527M86.426 27.28l-5.216 2.663s-1.212-.731.152-1.345c.351-.157 1.152-.612 1.8-.949a.471.471 0 0 0-.046-.856l-3.879-1.55c.656-.52 1.675-.83 2.648-.54.563.171 2.92 1.16 4.468 1.806.477.198.364.627.073.771m-12.294 3.56c-.556.396-4.22-.285-4.22-.285s4.054-3.587 7.91-4.046c1.147-.136 3.467.758 3.467.758s-5.171 2.15-7.157 3.573m39.56-.192c-1.714-3.736-2.972-6.927-3.422-7.691-1.31-2.208-3.263-2.09-4.938-1.8-4.468.765-6.21 1.55-14.087 3.632-1.158.317-3.343.956-4.547.54-3.191-1.087-4.157-1.957-5.686-1.786-2.37.27-7.243 2.551-12.531 6.4-1.656 1.186-1.464 2.602-1.755 3.538a.332.332 0 0 0 .285.428c.767.08 9.161.806 9.545.859a.347.347 0 0 1-.192-.31c0-.112.053-.224.172-.283 2.397-1.286 11.095-5.873 16.351-7.936 7.189-2.84 8.923-3.144 11.108-3.348.51-.046 1.225-.013 1.748.02.423.033.794.29.926.678.993 2.9 3.9 9.452 5.435 11.62 0 0-.271.514-.788.54-.404.008-1.224-.75-1.734-1.199a.349.349 0 0 0-.404-.026c-8.619 5.293-14.835 7.6-15.728 7.916a.296.296 0 0 1-.225-.007l-4.402-1.634s.165-.139.576-.956c.085-.191.132-.409.125-.547-.033-.699-.708-.857-1.013-.897-1.171-.145-32.635-4.765-40.525-5.536-3.35-.336-6.534 1.37-7.911 3.157l.007.046 4.468 4.636c.1.105.252.132.378.072l3.515-1.61s.482 1.483.033 1.733c-2.92 1.595-5.746 3.02-8.48 4.449-1.1.58-1.073 1.672-1.43 3.21-.15.644-.225 1.233-.225 1.233s6.13-3.059 9.883-4.845a.336.336 0 0 1 .384.073c.536.573.712.705 1.076 1.067a.33.33 0 0 1-.079.528c-.887.467-1.8.948-2.502 1.364-.556.33.009 1.43.009 1.43l10.2-4.81s.636.625-.49 1.317C55.083 47 38.997 55.165 37.613 55.2c-3.647.092-10.531-6.743-13.02-7.784-2.099-.877-4.356.553-7.421 2.346-.834.494-.325 1.687-.325 1.687l4.442-2.24s.55.632-.066 1.014c-2.151 1.358-5.262 2.716-5.74 3.059-.7.5-.431 2.847-.431 2.847l4.202-1.94c.126-.059.285-.039.344.02l9.006 8.537a10.145 10.145 0 0 0 1.668-.56l-7.513-7.955a.334.334 0 0 1 .093-.527c.767-.39 1.688-.673 2.985.316 1.092.824 4.912 3.902 8.606 3.572 1.231-.105 1.251.27 1.251.27s-1.569.752-3.43 1.767c-.92.507-.171 1.845-.171 1.845 9.519-3.888 21.242-8.726 22.884-9.431a.345.345 0 0 1 .338.046l2.753 2.175c.39.606 19.972-6.888 26.01-9.926.337-.165 3.408-.027 4.891-.04.682 0 .656.297.656.297s-49.006 19.45-61.028 19.001l-.02.013-2.561 1.095c1.503.988 1.145 2.695 3.7 1.377.152.35.331.719.517 1.114.496 1.075.496 1.081 3.746-.02 9.195-3.097 50.548-15.403 59.81-19.219 5.229-2.148 12.458-5.114 16.966-7.896 4.448-2.735 5.355-4.146 2.939-9.412M112.278 24.01c-.047.009-.102.018-.149.037a.385.385 0 0 0-.129.084l.5-.131c-.084 0-.148.01-.222.01M125.837 50.893l-.066.104-.073-.104c-.046-.066-4.593-6.67-6.237-9.227-.497-.771.086-1.157.086-1.157l.066-.04.047.06c.232.287 5.594 7.18 6.29 8.448.53.948-.086 1.876-.113 1.916m1.1-1.36c-.291-1.152-2.425-8.782-3.658-11.581L117.658 28c-.537.713-1.167 1.478-1.77 2.034-.113.091-.232.17-.37.235a1.473 1.473 0 0 1-.518.118l3.029 9.814c.45 1.577 1.505 2.917 2.413 4.277.457.673 3.678 5.414 4.918 7.232.258.38.835.392 1.087.006.45-.68.67-1.503.49-2.184"/>
        <g transform="translate(103)">
            <mask id="d" fill="#fff">
                <use xlink:href="#c"/>
            </mask>
            <path fill="#E50539" d="M7.823 12.13l-.068.04-.047-.06c-.23-.302-5.682-7.35-6.403-8.655-.527-.977.094-1.921.121-1.961l.067-.1.075.1c.047.073 4.682 6.84 6.35 9.45.505.79-.088 1.179-.095 1.185zm1.686.702c-.627-2.108-1.7-3.474-2.631-4.873A2595.75 2595.75 0 0 0 1.804.443.57.57 0 0 0 .859.45C.366 1.18.151 2.096.34 2.832c.304 1.172 2.403 8.943 3.658 11.807l5.222 9.123c.129-.14.29-.26.473-.341a1.2 1.2 0 0 1 .391-.094c.689-.047 1.768-.04 2.746-.02L9.51 12.832z" mask="url(#d)"/>
        </g>
    </g>
</svg>
